<svg xmlns="http://www.w3.org/2000/svg" enable-background="new 0 0 512 512" viewBox="0 0 512 512"><path d="M200,210H90c-5.523,0-10-4.477-10-10V90c0-5.523,4.477-10,10-10h110c5.523,0,10,4.477,10,10v110
				C210,205.523,205.523,210,200,210z M100,190h90v-90h-90V190z"/><path d="M310,210H200c-5.523,0-10-4.477-10-10V90c0-5.523,4.477-10,10-10h110c5.522,0,10,4.477,10,10v110
				C320,205.523,315.522,210,310,210z M210,190h90v-90h-90V190z"/><path d="M420 210H310c-5.522 0-10-4.477-10-10V90c0-5.523 4.478-10 10-10h110c5.522 0 10 4.477 10 10v110C430 205.523 425.522 210 420 210zM320 190h90v-90h-90V190zM200 320H90c-5.523 0-10-4.478-10-10V200c0-5.523 4.477-10 10-10h110c5.523 0 10 4.477 10 10v110C210 315.522 205.523 320 200 320zM100 300h90v-90h-90V300z"/><path d="M310,320H200c-5.523,0-10-4.478-10-10V200c0-5.523,4.477-10,10-10h110c5.522,0,10,4.477,10,10v110
				C320,315.522,315.522,320,310,320z M210,300h90v-90h-90V300z"/><path d="M420 320H310c-5.522 0-10-4.478-10-10V200c0-5.523 4.478-10 10-10h110c5.522 0 10 4.477 10 10v110C430 315.522 425.522 320 420 320zM320 300h90v-90h-90V300zM200 430H90c-5.523 0-10-4.478-10-10V310c0-5.522 4.477-10 10-10h110c5.523 0 10 4.478 10 10v110C210 425.522 205.523 430 200 430zM100 410h90v-90h-90V410z"/><path d="M310,430H200c-5.523,0-10-4.478-10-10V310c0-5.522,4.477-10,10-10h110c5.522,0,10,4.478,10,10v110
				C320,425.522,315.522,430,310,430z M210,410h90v-90h-90V410z"/><path d="M420,430H310c-5.522,0-10-4.478-10-10V310c0-5.522,4.478-10,10-10h110c5.522,0,10,4.478,10,10v110
				C430,425.522,425.522,430,420,430z M320,410h90v-90h-90V410z"/></svg>