<svg xmlns="http://www.w3.org/2000/svg" viewBox="0 0 61.31 63.78"><g data-name="Capa 2"><path d="M60.31,7.44H16.74V1a1,1,0,0,0-1-1H1A1,1,0,0,0,0,1V20.44a1,1,0,0,0,.58.91,1.06,1.06,0,0,0,.42.09,1,1,0,0,0,.65-.24l5.54-4.75V62.78a1,1,0,0,0,1,1H60.31a1,1,0,0,0,1-1V8.44A1,1,0,0,0,60.31,7.44Zm-1,18.11H43.94V9.44H59.31ZM26.56,43.67V27.55H41.94V43.67Zm15.38,2V61.78H26.56V45.67ZM9.19,27.55H24.56V43.67H9.19Zm17.37-2V9.44H41.94V25.55Zm17.38,2H59.31V43.67H43.94ZM16.18,21.34a1,1,0,0,0,.56-.9v-11h7.82V25.55H9.19v-9l5.93,4.71A1,1,0,0,0,16.18,21.34ZM2,2H14.74V18.37l-6-4.79a1,1,0,0,0-.62-.21,1,1,0,0,0-.65.24L2,18.27ZM9.19,45.67H24.56V61.78H9.19ZM43.94,61.78V45.67H59.31V61.78Z" data-name="Capa 1"/></g></svg>